<svg xmlns="http://www.w3.org/2000/svg" width="32" height="32"><path d="M32 5.734c-1.198.531-2.401.932-3.734 1.068 1.333-.802 2.401-2.135 2.932-3.604-1.333.802-2.667 1.333-4.13 1.604C25.735 3.469 24 2.667 22.136 2.667c-3.604 0-6.536 2.932-6.536 6.531 0 .536 0 1.068.135 1.469-5.469-.266-10.266-2.802-13.469-6.802-.667.938-.932 2.135-.932 3.333 0 2.271 1.198 4.271 2.932 5.469-1.068-.135-2.13-.401-2.932-.802V12c0 3.198 2.266 5.865 5.198 6.401-.531.13-1.063.266-1.729.266-.401 0-.802 0-1.203-.135.802 2.667 3.203 4.536 6.135 4.536-2.266 1.734-5.068 2.797-8.135 2.797-.531 0-1.068 0-1.599-.13a18.677 18.677 0 0010 2.932c12.135 0 18.667-10 18.667-18.667v-.802c1.333-.932 2.401-2.13 3.333-3.464z"/></svg>