<svg aria-hidden="true" style="position:absolute;width:0;height:0" xmlns="http://www.w3.org/2000/svg" overflow="hidden"><defs><symbol id="icon-icon-facebook" viewBox="0 0 32 32"><path d="M23.367 12h-4.7V9.333c0-1.376.112-2.243 2.084-2.243h2.491V2.85a34.76 34.76 0 00-3.651-.184c-3.617 0-6.257 2.209-6.257 6.265v3.068h-4v5.333l4-.001v12.001h5.333V17.328l4.088-.001.612-5.328z"/></symbol><symbol id="icon-icon-linkedin" viewBox="0 0 32 32"><path d="M8.643 4C7.184 4 6 5.182 6 6.641s1.183 2.668 2.641 2.668 2.643-1.209 2.643-2.668S10.102 4 8.643 4zm12.892 7c-2.219 0-3.489 1.16-4.098 2.314h-.064V11.31H13v14.689h4.557v-7.271c0-1.916.145-3.768 2.516-3.768 2.337 0 2.371 2.185 2.371 3.889v7.15h4.557v-8.068c0-3.948-.849-6.932-5.465-6.932zm-15.172.311V26h4.561V11.311H6.363z"/></symbol><symbol id="icon-icon-twitter" viewBox="0 0 32 32"><path d="M32 5.734c-1.198.531-2.401.932-3.734 1.068 1.333-.802 2.401-2.135 2.932-3.604-1.333.802-2.667 1.333-4.13 1.604C25.735 3.469 24 2.667 22.136 2.667c-3.604 0-6.536 2.932-6.536 6.531 0 .536 0 1.068.135 1.469-5.469-.266-10.266-2.802-13.469-6.802-.667.938-.932 2.135-.932 3.333 0 2.271 1.198 4.271 2.932 5.469-1.068-.135-2.13-.401-2.932-.802V12c0 3.198 2.266 5.865 5.198 6.401-.531.13-1.063.266-1.729.266-.401 0-.802 0-1.203-.135.802 2.667 3.203 4.536 6.135 4.536-2.266 1.734-5.068 2.797-8.135 2.797-.531 0-1.068 0-1.599-.13a18.677 18.677 0 0010 2.932c12.135 0 18.667-10 18.667-18.667v-.802c1.333-.932 2.401-2.13 3.333-3.464z"/></symbol></defs></svg>